<mxfile host="app.diagrams.net" modified="2023-06-13T12:50:59.634Z" agent="Mozilla/5.0 (Windows NT 10.0; Win64; x64) AppleWebKit/537.36 (KHTML, like Gecko) Chrome/114.0.0.0 Safari/537.36" etag="KlSmu1wNWeHBzoyURDdC" version="21.3.8" type="device">
  <diagram name="페이지-1" id="-MF90os4OYRvRn4rfq6e">
    <mxGraphModel dx="1434" dy="796" grid="1" gridSize="10" guides="1" tooltips="1" connect="1" arrows="1" fold="1" page="1" pageScale="1" pageWidth="827" pageHeight="1169" math="0" shadow="0">
      <root>
        <mxCell id="0" />
        <mxCell id="1" parent="0" />
        <mxCell id="99yKhhml4Z9IP-0FQXXE-305" value="" style="rounded=0;whiteSpace=wrap;html=1;" vertex="1" parent="1">
          <mxGeometry x="30" y="510" width="730" height="60" as="geometry" />
        </mxCell>
        <mxCell id="99yKhhml4Z9IP-0FQXXE-153" value="" style="rounded=0;whiteSpace=wrap;html=1;" vertex="1" parent="1">
          <mxGeometry x="30" y="230" width="370" height="60" as="geometry" />
        </mxCell>
        <mxCell id="99yKhhml4Z9IP-0FQXXE-1" value="" style="rounded=0;whiteSpace=wrap;html=1;" vertex="1" parent="1">
          <mxGeometry x="40" y="40" width="40" height="40" as="geometry" />
        </mxCell>
        <mxCell id="99yKhhml4Z9IP-0FQXXE-2" value="" style="rounded=0;whiteSpace=wrap;html=1;" vertex="1" parent="1">
          <mxGeometry x="80" y="40" width="40" height="40" as="geometry" />
        </mxCell>
        <mxCell id="99yKhhml4Z9IP-0FQXXE-3" value="" style="rounded=0;whiteSpace=wrap;html=1;" vertex="1" parent="1">
          <mxGeometry x="120" y="40" width="40" height="40" as="geometry" />
        </mxCell>
        <mxCell id="99yKhhml4Z9IP-0FQXXE-4" value="" style="rounded=0;whiteSpace=wrap;html=1;" vertex="1" parent="1">
          <mxGeometry x="160" y="40" width="40" height="40" as="geometry" />
        </mxCell>
        <mxCell id="99yKhhml4Z9IP-0FQXXE-5" value="" style="rounded=0;whiteSpace=wrap;html=1;" vertex="1" parent="1">
          <mxGeometry x="200" y="40" width="40" height="40" as="geometry" />
        </mxCell>
        <mxCell id="99yKhhml4Z9IP-0FQXXE-6" value="" style="rounded=0;whiteSpace=wrap;html=1;" vertex="1" parent="1">
          <mxGeometry x="40" y="80" width="40" height="40" as="geometry" />
        </mxCell>
        <mxCell id="99yKhhml4Z9IP-0FQXXE-7" value="" style="rounded=0;whiteSpace=wrap;html=1;" vertex="1" parent="1">
          <mxGeometry x="80" y="80" width="40" height="40" as="geometry" />
        </mxCell>
        <mxCell id="99yKhhml4Z9IP-0FQXXE-8" value="" style="rounded=0;whiteSpace=wrap;html=1;" vertex="1" parent="1">
          <mxGeometry x="120" y="80" width="40" height="40" as="geometry" />
        </mxCell>
        <mxCell id="99yKhhml4Z9IP-0FQXXE-9" value="" style="rounded=0;whiteSpace=wrap;html=1;" vertex="1" parent="1">
          <mxGeometry x="160" y="80" width="40" height="40" as="geometry" />
        </mxCell>
        <mxCell id="99yKhhml4Z9IP-0FQXXE-10" value="" style="rounded=0;whiteSpace=wrap;html=1;" vertex="1" parent="1">
          <mxGeometry x="200" y="80" width="40" height="40" as="geometry" />
        </mxCell>
        <mxCell id="99yKhhml4Z9IP-0FQXXE-11" value="" style="rounded=0;whiteSpace=wrap;html=1;" vertex="1" parent="1">
          <mxGeometry x="40" y="120" width="40" height="40" as="geometry" />
        </mxCell>
        <mxCell id="99yKhhml4Z9IP-0FQXXE-12" value="" style="rounded=0;whiteSpace=wrap;html=1;" vertex="1" parent="1">
          <mxGeometry x="80" y="120" width="40" height="40" as="geometry" />
        </mxCell>
        <mxCell id="99yKhhml4Z9IP-0FQXXE-13" value="" style="rounded=0;whiteSpace=wrap;html=1;" vertex="1" parent="1">
          <mxGeometry x="120" y="120" width="40" height="40" as="geometry" />
        </mxCell>
        <mxCell id="99yKhhml4Z9IP-0FQXXE-14" value="" style="rounded=0;whiteSpace=wrap;html=1;" vertex="1" parent="1">
          <mxGeometry x="160" y="120" width="40" height="40" as="geometry" />
        </mxCell>
        <mxCell id="99yKhhml4Z9IP-0FQXXE-15" value="" style="rounded=0;whiteSpace=wrap;html=1;" vertex="1" parent="1">
          <mxGeometry x="200" y="120" width="40" height="40" as="geometry" />
        </mxCell>
        <mxCell id="99yKhhml4Z9IP-0FQXXE-16" value="" style="rounded=0;whiteSpace=wrap;html=1;" vertex="1" parent="1">
          <mxGeometry x="40" y="160" width="40" height="40" as="geometry" />
        </mxCell>
        <mxCell id="99yKhhml4Z9IP-0FQXXE-17" value="" style="rounded=0;whiteSpace=wrap;html=1;" vertex="1" parent="1">
          <mxGeometry x="80" y="160" width="40" height="40" as="geometry" />
        </mxCell>
        <mxCell id="99yKhhml4Z9IP-0FQXXE-18" value="" style="rounded=0;whiteSpace=wrap;html=1;" vertex="1" parent="1">
          <mxGeometry x="120" y="160" width="40" height="40" as="geometry" />
        </mxCell>
        <mxCell id="99yKhhml4Z9IP-0FQXXE-19" value="" style="rounded=0;whiteSpace=wrap;html=1;" vertex="1" parent="1">
          <mxGeometry x="160" y="160" width="40" height="40" as="geometry" />
        </mxCell>
        <mxCell id="99yKhhml4Z9IP-0FQXXE-20" value="" style="rounded=0;whiteSpace=wrap;html=1;" vertex="1" parent="1">
          <mxGeometry x="200" y="160" width="40" height="40" as="geometry" />
        </mxCell>
        <mxCell id="99yKhhml4Z9IP-0FQXXE-21" value="문장을 쓰거나 읽고 싶다 &lt;br&gt;= 문장에 대한 변수를 선언해야함&lt;br&gt;&lt;br&gt;문장이 아직 정해지지는 않았으나,&lt;br&gt;어떤 문장을 쓰거나 읽으려면 컴퓨터의 메모리의 일부 공간을 해당 용도로 확보해야함" style="rounded=0;whiteSpace=wrap;html=1;strokeColor=none;" vertex="1" parent="1">
          <mxGeometry x="280" width="190" height="120" as="geometry" />
        </mxCell>
        <mxCell id="99yKhhml4Z9IP-0FQXXE-24" value="" style="rounded=0;whiteSpace=wrap;html=1;" vertex="1" parent="1">
          <mxGeometry x="40" y="240" width="10" height="40" as="geometry" />
        </mxCell>
        <mxCell id="99yKhhml4Z9IP-0FQXXE-26" value="" style="rounded=0;whiteSpace=wrap;html=1;" vertex="1" parent="1">
          <mxGeometry x="50" y="240" width="10" height="40" as="geometry" />
        </mxCell>
        <mxCell id="99yKhhml4Z9IP-0FQXXE-27" value="" style="rounded=0;whiteSpace=wrap;html=1;" vertex="1" parent="1">
          <mxGeometry x="60" y="240" width="10" height="40" as="geometry" />
        </mxCell>
        <mxCell id="99yKhhml4Z9IP-0FQXXE-28" value="" style="rounded=0;whiteSpace=wrap;html=1;" vertex="1" parent="1">
          <mxGeometry x="70" y="240" width="10" height="40" as="geometry" />
        </mxCell>
        <mxCell id="99yKhhml4Z9IP-0FQXXE-29" value="" style="rounded=0;whiteSpace=wrap;html=1;" vertex="1" parent="1">
          <mxGeometry x="80" y="240" width="10" height="40" as="geometry" />
        </mxCell>
        <mxCell id="99yKhhml4Z9IP-0FQXXE-30" value="" style="rounded=0;whiteSpace=wrap;html=1;" vertex="1" parent="1">
          <mxGeometry x="90" y="240" width="10" height="40" as="geometry" />
        </mxCell>
        <mxCell id="99yKhhml4Z9IP-0FQXXE-31" value="" style="rounded=0;whiteSpace=wrap;html=1;" vertex="1" parent="1">
          <mxGeometry x="100" y="240" width="10" height="40" as="geometry" />
        </mxCell>
        <mxCell id="99yKhhml4Z9IP-0FQXXE-32" value="" style="rounded=0;whiteSpace=wrap;html=1;" vertex="1" parent="1">
          <mxGeometry x="110" y="240" width="10" height="40" as="geometry" />
        </mxCell>
        <mxCell id="99yKhhml4Z9IP-0FQXXE-33" value="" style="rounded=0;whiteSpace=wrap;html=1;" vertex="1" parent="1">
          <mxGeometry x="130" y="240" width="10" height="40" as="geometry" />
        </mxCell>
        <mxCell id="99yKhhml4Z9IP-0FQXXE-34" value="" style="rounded=0;whiteSpace=wrap;html=1;" vertex="1" parent="1">
          <mxGeometry x="140" y="240" width="10" height="40" as="geometry" />
        </mxCell>
        <mxCell id="99yKhhml4Z9IP-0FQXXE-35" value="" style="rounded=0;whiteSpace=wrap;html=1;" vertex="1" parent="1">
          <mxGeometry x="150" y="240" width="10" height="40" as="geometry" />
        </mxCell>
        <mxCell id="99yKhhml4Z9IP-0FQXXE-36" value="" style="rounded=0;whiteSpace=wrap;html=1;" vertex="1" parent="1">
          <mxGeometry x="160" y="240" width="10" height="40" as="geometry" />
        </mxCell>
        <mxCell id="99yKhhml4Z9IP-0FQXXE-37" value="" style="rounded=0;whiteSpace=wrap;html=1;" vertex="1" parent="1">
          <mxGeometry x="170" y="240" width="10" height="40" as="geometry" />
        </mxCell>
        <mxCell id="99yKhhml4Z9IP-0FQXXE-38" value="" style="rounded=0;whiteSpace=wrap;html=1;" vertex="1" parent="1">
          <mxGeometry x="180" y="240" width="10" height="40" as="geometry" />
        </mxCell>
        <mxCell id="99yKhhml4Z9IP-0FQXXE-39" value="" style="rounded=0;whiteSpace=wrap;html=1;" vertex="1" parent="1">
          <mxGeometry x="190" y="240" width="10" height="40" as="geometry" />
        </mxCell>
        <mxCell id="99yKhhml4Z9IP-0FQXXE-40" value="" style="rounded=0;whiteSpace=wrap;html=1;" vertex="1" parent="1">
          <mxGeometry x="200" y="240" width="10" height="40" as="geometry" />
        </mxCell>
        <mxCell id="99yKhhml4Z9IP-0FQXXE-41" value="" style="rounded=0;whiteSpace=wrap;html=1;" vertex="1" parent="1">
          <mxGeometry x="220" y="240" width="10" height="40" as="geometry" />
        </mxCell>
        <mxCell id="99yKhhml4Z9IP-0FQXXE-42" value="" style="rounded=0;whiteSpace=wrap;html=1;" vertex="1" parent="1">
          <mxGeometry x="230" y="240" width="10" height="40" as="geometry" />
        </mxCell>
        <mxCell id="99yKhhml4Z9IP-0FQXXE-43" value="" style="rounded=0;whiteSpace=wrap;html=1;" vertex="1" parent="1">
          <mxGeometry x="240" y="240" width="10" height="40" as="geometry" />
        </mxCell>
        <mxCell id="99yKhhml4Z9IP-0FQXXE-44" value="" style="rounded=0;whiteSpace=wrap;html=1;" vertex="1" parent="1">
          <mxGeometry x="250" y="240" width="10" height="40" as="geometry" />
        </mxCell>
        <mxCell id="99yKhhml4Z9IP-0FQXXE-45" value="" style="rounded=0;whiteSpace=wrap;html=1;" vertex="1" parent="1">
          <mxGeometry x="260" y="240" width="10" height="40" as="geometry" />
        </mxCell>
        <mxCell id="99yKhhml4Z9IP-0FQXXE-46" value="" style="rounded=0;whiteSpace=wrap;html=1;" vertex="1" parent="1">
          <mxGeometry x="270" y="240" width="10" height="40" as="geometry" />
        </mxCell>
        <mxCell id="99yKhhml4Z9IP-0FQXXE-47" value="" style="rounded=0;whiteSpace=wrap;html=1;" vertex="1" parent="1">
          <mxGeometry x="280" y="240" width="10" height="40" as="geometry" />
        </mxCell>
        <mxCell id="99yKhhml4Z9IP-0FQXXE-48" value="" style="rounded=0;whiteSpace=wrap;html=1;" vertex="1" parent="1">
          <mxGeometry x="290" y="240" width="10" height="40" as="geometry" />
        </mxCell>
        <mxCell id="99yKhhml4Z9IP-0FQXXE-49" value="" style="rounded=0;whiteSpace=wrap;html=1;" vertex="1" parent="1">
          <mxGeometry x="310" y="240" width="10" height="40" as="geometry" />
        </mxCell>
        <mxCell id="99yKhhml4Z9IP-0FQXXE-50" value="" style="rounded=0;whiteSpace=wrap;html=1;" vertex="1" parent="1">
          <mxGeometry x="320" y="240" width="10" height="40" as="geometry" />
        </mxCell>
        <mxCell id="99yKhhml4Z9IP-0FQXXE-51" value="" style="rounded=0;whiteSpace=wrap;html=1;" vertex="1" parent="1">
          <mxGeometry x="330" y="240" width="10" height="40" as="geometry" />
        </mxCell>
        <mxCell id="99yKhhml4Z9IP-0FQXXE-52" value="" style="rounded=0;whiteSpace=wrap;html=1;" vertex="1" parent="1">
          <mxGeometry x="340" y="240" width="10" height="40" as="geometry" />
        </mxCell>
        <mxCell id="99yKhhml4Z9IP-0FQXXE-53" value="" style="rounded=0;whiteSpace=wrap;html=1;" vertex="1" parent="1">
          <mxGeometry x="350" y="240" width="10" height="40" as="geometry" />
        </mxCell>
        <mxCell id="99yKhhml4Z9IP-0FQXXE-54" value="" style="rounded=0;whiteSpace=wrap;html=1;fillColor=#dae8fc;strokeColor=#6c8ebf;" vertex="1" parent="1">
          <mxGeometry x="360" y="240" width="10" height="40" as="geometry" />
        </mxCell>
        <mxCell id="99yKhhml4Z9IP-0FQXXE-55" value="" style="rounded=0;whiteSpace=wrap;html=1;" vertex="1" parent="1">
          <mxGeometry x="370" y="240" width="10" height="40" as="geometry" />
        </mxCell>
        <mxCell id="99yKhhml4Z9IP-0FQXXE-56" value="" style="rounded=0;whiteSpace=wrap;html=1;fillColor=#dae8fc;strokeColor=#6c8ebf;" vertex="1" parent="1">
          <mxGeometry x="380" y="240" width="10" height="40" as="geometry" />
        </mxCell>
        <mxCell id="99yKhhml4Z9IP-0FQXXE-57" value="" style="rounded=0;whiteSpace=wrap;html=1;" vertex="1" parent="1">
          <mxGeometry x="40" y="290" width="10" height="40" as="geometry" />
        </mxCell>
        <mxCell id="99yKhhml4Z9IP-0FQXXE-58" value="" style="rounded=0;whiteSpace=wrap;html=1;" vertex="1" parent="1">
          <mxGeometry x="50" y="290" width="10" height="40" as="geometry" />
        </mxCell>
        <mxCell id="99yKhhml4Z9IP-0FQXXE-59" value="" style="rounded=0;whiteSpace=wrap;html=1;" vertex="1" parent="1">
          <mxGeometry x="60" y="290" width="10" height="40" as="geometry" />
        </mxCell>
        <mxCell id="99yKhhml4Z9IP-0FQXXE-60" value="" style="rounded=0;whiteSpace=wrap;html=1;" vertex="1" parent="1">
          <mxGeometry x="70" y="290" width="10" height="40" as="geometry" />
        </mxCell>
        <mxCell id="99yKhhml4Z9IP-0FQXXE-61" value="" style="rounded=0;whiteSpace=wrap;html=1;" vertex="1" parent="1">
          <mxGeometry x="80" y="290" width="10" height="40" as="geometry" />
        </mxCell>
        <mxCell id="99yKhhml4Z9IP-0FQXXE-62" value="" style="rounded=0;whiteSpace=wrap;html=1;" vertex="1" parent="1">
          <mxGeometry x="90" y="290" width="10" height="40" as="geometry" />
        </mxCell>
        <mxCell id="99yKhhml4Z9IP-0FQXXE-63" value="" style="rounded=0;whiteSpace=wrap;html=1;" vertex="1" parent="1">
          <mxGeometry x="100" y="290" width="10" height="40" as="geometry" />
        </mxCell>
        <mxCell id="99yKhhml4Z9IP-0FQXXE-64" value="" style="rounded=0;whiteSpace=wrap;html=1;" vertex="1" parent="1">
          <mxGeometry x="110" y="290" width="10" height="40" as="geometry" />
        </mxCell>
        <mxCell id="99yKhhml4Z9IP-0FQXXE-65" value="" style="rounded=0;whiteSpace=wrap;html=1;" vertex="1" parent="1">
          <mxGeometry x="130" y="290" width="10" height="40" as="geometry" />
        </mxCell>
        <mxCell id="99yKhhml4Z9IP-0FQXXE-66" value="" style="rounded=0;whiteSpace=wrap;html=1;" vertex="1" parent="1">
          <mxGeometry x="140" y="290" width="10" height="40" as="geometry" />
        </mxCell>
        <mxCell id="99yKhhml4Z9IP-0FQXXE-67" value="" style="rounded=0;whiteSpace=wrap;html=1;" vertex="1" parent="1">
          <mxGeometry x="150" y="290" width="10" height="40" as="geometry" />
        </mxCell>
        <mxCell id="99yKhhml4Z9IP-0FQXXE-68" value="" style="rounded=0;whiteSpace=wrap;html=1;" vertex="1" parent="1">
          <mxGeometry x="160" y="290" width="10" height="40" as="geometry" />
        </mxCell>
        <mxCell id="99yKhhml4Z9IP-0FQXXE-69" value="" style="rounded=0;whiteSpace=wrap;html=1;" vertex="1" parent="1">
          <mxGeometry x="170" y="290" width="10" height="40" as="geometry" />
        </mxCell>
        <mxCell id="99yKhhml4Z9IP-0FQXXE-70" value="" style="rounded=0;whiteSpace=wrap;html=1;" vertex="1" parent="1">
          <mxGeometry x="180" y="290" width="10" height="40" as="geometry" />
        </mxCell>
        <mxCell id="99yKhhml4Z9IP-0FQXXE-71" value="" style="rounded=0;whiteSpace=wrap;html=1;" vertex="1" parent="1">
          <mxGeometry x="190" y="290" width="10" height="40" as="geometry" />
        </mxCell>
        <mxCell id="99yKhhml4Z9IP-0FQXXE-72" value="" style="rounded=0;whiteSpace=wrap;html=1;" vertex="1" parent="1">
          <mxGeometry x="200" y="290" width="10" height="40" as="geometry" />
        </mxCell>
        <mxCell id="99yKhhml4Z9IP-0FQXXE-73" value="" style="rounded=0;whiteSpace=wrap;html=1;" vertex="1" parent="1">
          <mxGeometry x="220" y="290" width="10" height="40" as="geometry" />
        </mxCell>
        <mxCell id="99yKhhml4Z9IP-0FQXXE-74" value="" style="rounded=0;whiteSpace=wrap;html=1;" vertex="1" parent="1">
          <mxGeometry x="230" y="290" width="10" height="40" as="geometry" />
        </mxCell>
        <mxCell id="99yKhhml4Z9IP-0FQXXE-75" value="" style="rounded=0;whiteSpace=wrap;html=1;" vertex="1" parent="1">
          <mxGeometry x="240" y="290" width="10" height="40" as="geometry" />
        </mxCell>
        <mxCell id="99yKhhml4Z9IP-0FQXXE-76" value="" style="rounded=0;whiteSpace=wrap;html=1;" vertex="1" parent="1">
          <mxGeometry x="250" y="290" width="10" height="40" as="geometry" />
        </mxCell>
        <mxCell id="99yKhhml4Z9IP-0FQXXE-77" value="" style="rounded=0;whiteSpace=wrap;html=1;" vertex="1" parent="1">
          <mxGeometry x="260" y="290" width="10" height="40" as="geometry" />
        </mxCell>
        <mxCell id="99yKhhml4Z9IP-0FQXXE-78" value="" style="rounded=0;whiteSpace=wrap;html=1;" vertex="1" parent="1">
          <mxGeometry x="270" y="290" width="10" height="40" as="geometry" />
        </mxCell>
        <mxCell id="99yKhhml4Z9IP-0FQXXE-79" value="" style="rounded=0;whiteSpace=wrap;html=1;" vertex="1" parent="1">
          <mxGeometry x="280" y="290" width="10" height="40" as="geometry" />
        </mxCell>
        <mxCell id="99yKhhml4Z9IP-0FQXXE-80" value="" style="rounded=0;whiteSpace=wrap;html=1;" vertex="1" parent="1">
          <mxGeometry x="290" y="290" width="10" height="40" as="geometry" />
        </mxCell>
        <mxCell id="99yKhhml4Z9IP-0FQXXE-81" value="" style="rounded=0;whiteSpace=wrap;html=1;" vertex="1" parent="1">
          <mxGeometry x="310" y="290" width="10" height="40" as="geometry" />
        </mxCell>
        <mxCell id="99yKhhml4Z9IP-0FQXXE-82" value="" style="rounded=0;whiteSpace=wrap;html=1;" vertex="1" parent="1">
          <mxGeometry x="320" y="290" width="10" height="40" as="geometry" />
        </mxCell>
        <mxCell id="99yKhhml4Z9IP-0FQXXE-83" value="" style="rounded=0;whiteSpace=wrap;html=1;" vertex="1" parent="1">
          <mxGeometry x="330" y="290" width="10" height="40" as="geometry" />
        </mxCell>
        <mxCell id="99yKhhml4Z9IP-0FQXXE-84" value="" style="rounded=0;whiteSpace=wrap;html=1;" vertex="1" parent="1">
          <mxGeometry x="340" y="290" width="10" height="40" as="geometry" />
        </mxCell>
        <mxCell id="99yKhhml4Z9IP-0FQXXE-85" value="" style="rounded=0;whiteSpace=wrap;html=1;" vertex="1" parent="1">
          <mxGeometry x="350" y="290" width="10" height="40" as="geometry" />
        </mxCell>
        <mxCell id="99yKhhml4Z9IP-0FQXXE-86" value="" style="rounded=0;whiteSpace=wrap;html=1;" vertex="1" parent="1">
          <mxGeometry x="360" y="290" width="10" height="40" as="geometry" />
        </mxCell>
        <mxCell id="99yKhhml4Z9IP-0FQXXE-87" value="" style="rounded=0;whiteSpace=wrap;html=1;" vertex="1" parent="1">
          <mxGeometry x="370" y="290" width="10" height="40" as="geometry" />
        </mxCell>
        <mxCell id="99yKhhml4Z9IP-0FQXXE-88" value="" style="rounded=0;whiteSpace=wrap;html=1;" vertex="1" parent="1">
          <mxGeometry x="380" y="290" width="10" height="40" as="geometry" />
        </mxCell>
        <mxCell id="99yKhhml4Z9IP-0FQXXE-89" value="" style="rounded=0;whiteSpace=wrap;html=1;" vertex="1" parent="1">
          <mxGeometry x="40" y="340" width="10" height="40" as="geometry" />
        </mxCell>
        <mxCell id="99yKhhml4Z9IP-0FQXXE-90" value="" style="rounded=0;whiteSpace=wrap;html=1;" vertex="1" parent="1">
          <mxGeometry x="50" y="340" width="10" height="40" as="geometry" />
        </mxCell>
        <mxCell id="99yKhhml4Z9IP-0FQXXE-91" value="" style="rounded=0;whiteSpace=wrap;html=1;" vertex="1" parent="1">
          <mxGeometry x="60" y="340" width="10" height="40" as="geometry" />
        </mxCell>
        <mxCell id="99yKhhml4Z9IP-0FQXXE-92" value="" style="rounded=0;whiteSpace=wrap;html=1;" vertex="1" parent="1">
          <mxGeometry x="70" y="340" width="10" height="40" as="geometry" />
        </mxCell>
        <mxCell id="99yKhhml4Z9IP-0FQXXE-93" value="" style="rounded=0;whiteSpace=wrap;html=1;" vertex="1" parent="1">
          <mxGeometry x="80" y="340" width="10" height="40" as="geometry" />
        </mxCell>
        <mxCell id="99yKhhml4Z9IP-0FQXXE-94" value="" style="rounded=0;whiteSpace=wrap;html=1;" vertex="1" parent="1">
          <mxGeometry x="90" y="340" width="10" height="40" as="geometry" />
        </mxCell>
        <mxCell id="99yKhhml4Z9IP-0FQXXE-95" value="" style="rounded=0;whiteSpace=wrap;html=1;" vertex="1" parent="1">
          <mxGeometry x="100" y="340" width="10" height="40" as="geometry" />
        </mxCell>
        <mxCell id="99yKhhml4Z9IP-0FQXXE-96" value="" style="rounded=0;whiteSpace=wrap;html=1;" vertex="1" parent="1">
          <mxGeometry x="110" y="340" width="10" height="40" as="geometry" />
        </mxCell>
        <mxCell id="99yKhhml4Z9IP-0FQXXE-97" value="" style="rounded=0;whiteSpace=wrap;html=1;" vertex="1" parent="1">
          <mxGeometry x="130" y="340" width="10" height="40" as="geometry" />
        </mxCell>
        <mxCell id="99yKhhml4Z9IP-0FQXXE-98" value="" style="rounded=0;whiteSpace=wrap;html=1;" vertex="1" parent="1">
          <mxGeometry x="140" y="340" width="10" height="40" as="geometry" />
        </mxCell>
        <mxCell id="99yKhhml4Z9IP-0FQXXE-99" value="" style="rounded=0;whiteSpace=wrap;html=1;" vertex="1" parent="1">
          <mxGeometry x="150" y="340" width="10" height="40" as="geometry" />
        </mxCell>
        <mxCell id="99yKhhml4Z9IP-0FQXXE-100" value="" style="rounded=0;whiteSpace=wrap;html=1;" vertex="1" parent="1">
          <mxGeometry x="160" y="340" width="10" height="40" as="geometry" />
        </mxCell>
        <mxCell id="99yKhhml4Z9IP-0FQXXE-101" value="" style="rounded=0;whiteSpace=wrap;html=1;" vertex="1" parent="1">
          <mxGeometry x="170" y="340" width="10" height="40" as="geometry" />
        </mxCell>
        <mxCell id="99yKhhml4Z9IP-0FQXXE-102" value="" style="rounded=0;whiteSpace=wrap;html=1;" vertex="1" parent="1">
          <mxGeometry x="180" y="340" width="10" height="40" as="geometry" />
        </mxCell>
        <mxCell id="99yKhhml4Z9IP-0FQXXE-103" value="" style="rounded=0;whiteSpace=wrap;html=1;" vertex="1" parent="1">
          <mxGeometry x="190" y="340" width="10" height="40" as="geometry" />
        </mxCell>
        <mxCell id="99yKhhml4Z9IP-0FQXXE-104" value="" style="rounded=0;whiteSpace=wrap;html=1;" vertex="1" parent="1">
          <mxGeometry x="200" y="340" width="10" height="40" as="geometry" />
        </mxCell>
        <mxCell id="99yKhhml4Z9IP-0FQXXE-105" value="" style="rounded=0;whiteSpace=wrap;html=1;" vertex="1" parent="1">
          <mxGeometry x="220" y="340" width="10" height="40" as="geometry" />
        </mxCell>
        <mxCell id="99yKhhml4Z9IP-0FQXXE-106" value="" style="rounded=0;whiteSpace=wrap;html=1;" vertex="1" parent="1">
          <mxGeometry x="230" y="340" width="10" height="40" as="geometry" />
        </mxCell>
        <mxCell id="99yKhhml4Z9IP-0FQXXE-107" value="" style="rounded=0;whiteSpace=wrap;html=1;" vertex="1" parent="1">
          <mxGeometry x="240" y="340" width="10" height="40" as="geometry" />
        </mxCell>
        <mxCell id="99yKhhml4Z9IP-0FQXXE-108" value="" style="rounded=0;whiteSpace=wrap;html=1;" vertex="1" parent="1">
          <mxGeometry x="250" y="340" width="10" height="40" as="geometry" />
        </mxCell>
        <mxCell id="99yKhhml4Z9IP-0FQXXE-109" value="" style="rounded=0;whiteSpace=wrap;html=1;" vertex="1" parent="1">
          <mxGeometry x="260" y="340" width="10" height="40" as="geometry" />
        </mxCell>
        <mxCell id="99yKhhml4Z9IP-0FQXXE-110" value="" style="rounded=0;whiteSpace=wrap;html=1;" vertex="1" parent="1">
          <mxGeometry x="270" y="340" width="10" height="40" as="geometry" />
        </mxCell>
        <mxCell id="99yKhhml4Z9IP-0FQXXE-111" value="" style="rounded=0;whiteSpace=wrap;html=1;" vertex="1" parent="1">
          <mxGeometry x="280" y="340" width="10" height="40" as="geometry" />
        </mxCell>
        <mxCell id="99yKhhml4Z9IP-0FQXXE-112" value="" style="rounded=0;whiteSpace=wrap;html=1;" vertex="1" parent="1">
          <mxGeometry x="290" y="340" width="10" height="40" as="geometry" />
        </mxCell>
        <mxCell id="99yKhhml4Z9IP-0FQXXE-113" value="" style="rounded=0;whiteSpace=wrap;html=1;" vertex="1" parent="1">
          <mxGeometry x="310" y="340" width="10" height="40" as="geometry" />
        </mxCell>
        <mxCell id="99yKhhml4Z9IP-0FQXXE-114" value="" style="rounded=0;whiteSpace=wrap;html=1;" vertex="1" parent="1">
          <mxGeometry x="320" y="340" width="10" height="40" as="geometry" />
        </mxCell>
        <mxCell id="99yKhhml4Z9IP-0FQXXE-115" value="" style="rounded=0;whiteSpace=wrap;html=1;" vertex="1" parent="1">
          <mxGeometry x="330" y="340" width="10" height="40" as="geometry" />
        </mxCell>
        <mxCell id="99yKhhml4Z9IP-0FQXXE-116" value="" style="rounded=0;whiteSpace=wrap;html=1;" vertex="1" parent="1">
          <mxGeometry x="340" y="340" width="10" height="40" as="geometry" />
        </mxCell>
        <mxCell id="99yKhhml4Z9IP-0FQXXE-117" value="" style="rounded=0;whiteSpace=wrap;html=1;" vertex="1" parent="1">
          <mxGeometry x="350" y="340" width="10" height="40" as="geometry" />
        </mxCell>
        <mxCell id="99yKhhml4Z9IP-0FQXXE-118" value="" style="rounded=0;whiteSpace=wrap;html=1;" vertex="1" parent="1">
          <mxGeometry x="360" y="340" width="10" height="40" as="geometry" />
        </mxCell>
        <mxCell id="99yKhhml4Z9IP-0FQXXE-119" value="" style="rounded=0;whiteSpace=wrap;html=1;" vertex="1" parent="1">
          <mxGeometry x="370" y="340" width="10" height="40" as="geometry" />
        </mxCell>
        <mxCell id="99yKhhml4Z9IP-0FQXXE-120" value="" style="rounded=0;whiteSpace=wrap;html=1;" vertex="1" parent="1">
          <mxGeometry x="380" y="340" width="10" height="40" as="geometry" />
        </mxCell>
        <mxCell id="99yKhhml4Z9IP-0FQXXE-121" value="" style="rounded=0;whiteSpace=wrap;html=1;" vertex="1" parent="1">
          <mxGeometry x="40" y="390" width="10" height="40" as="geometry" />
        </mxCell>
        <mxCell id="99yKhhml4Z9IP-0FQXXE-122" value="" style="rounded=0;whiteSpace=wrap;html=1;" vertex="1" parent="1">
          <mxGeometry x="50" y="390" width="10" height="40" as="geometry" />
        </mxCell>
        <mxCell id="99yKhhml4Z9IP-0FQXXE-123" value="" style="rounded=0;whiteSpace=wrap;html=1;" vertex="1" parent="1">
          <mxGeometry x="60" y="390" width="10" height="40" as="geometry" />
        </mxCell>
        <mxCell id="99yKhhml4Z9IP-0FQXXE-124" value="" style="rounded=0;whiteSpace=wrap;html=1;" vertex="1" parent="1">
          <mxGeometry x="70" y="390" width="10" height="40" as="geometry" />
        </mxCell>
        <mxCell id="99yKhhml4Z9IP-0FQXXE-125" value="" style="rounded=0;whiteSpace=wrap;html=1;" vertex="1" parent="1">
          <mxGeometry x="80" y="390" width="10" height="40" as="geometry" />
        </mxCell>
        <mxCell id="99yKhhml4Z9IP-0FQXXE-126" value="" style="rounded=0;whiteSpace=wrap;html=1;" vertex="1" parent="1">
          <mxGeometry x="90" y="390" width="10" height="40" as="geometry" />
        </mxCell>
        <mxCell id="99yKhhml4Z9IP-0FQXXE-127" value="" style="rounded=0;whiteSpace=wrap;html=1;" vertex="1" parent="1">
          <mxGeometry x="100" y="390" width="10" height="40" as="geometry" />
        </mxCell>
        <mxCell id="99yKhhml4Z9IP-0FQXXE-128" value="" style="rounded=0;whiteSpace=wrap;html=1;" vertex="1" parent="1">
          <mxGeometry x="110" y="390" width="10" height="40" as="geometry" />
        </mxCell>
        <mxCell id="99yKhhml4Z9IP-0FQXXE-129" value="" style="rounded=0;whiteSpace=wrap;html=1;" vertex="1" parent="1">
          <mxGeometry x="130" y="390" width="10" height="40" as="geometry" />
        </mxCell>
        <mxCell id="99yKhhml4Z9IP-0FQXXE-130" value="" style="rounded=0;whiteSpace=wrap;html=1;" vertex="1" parent="1">
          <mxGeometry x="140" y="390" width="10" height="40" as="geometry" />
        </mxCell>
        <mxCell id="99yKhhml4Z9IP-0FQXXE-131" value="" style="rounded=0;whiteSpace=wrap;html=1;" vertex="1" parent="1">
          <mxGeometry x="150" y="390" width="10" height="40" as="geometry" />
        </mxCell>
        <mxCell id="99yKhhml4Z9IP-0FQXXE-132" value="" style="rounded=0;whiteSpace=wrap;html=1;" vertex="1" parent="1">
          <mxGeometry x="160" y="390" width="10" height="40" as="geometry" />
        </mxCell>
        <mxCell id="99yKhhml4Z9IP-0FQXXE-133" value="" style="rounded=0;whiteSpace=wrap;html=1;" vertex="1" parent="1">
          <mxGeometry x="170" y="390" width="10" height="40" as="geometry" />
        </mxCell>
        <mxCell id="99yKhhml4Z9IP-0FQXXE-134" value="" style="rounded=0;whiteSpace=wrap;html=1;" vertex="1" parent="1">
          <mxGeometry x="180" y="390" width="10" height="40" as="geometry" />
        </mxCell>
        <mxCell id="99yKhhml4Z9IP-0FQXXE-135" value="" style="rounded=0;whiteSpace=wrap;html=1;" vertex="1" parent="1">
          <mxGeometry x="190" y="390" width="10" height="40" as="geometry" />
        </mxCell>
        <mxCell id="99yKhhml4Z9IP-0FQXXE-136" value="" style="rounded=0;whiteSpace=wrap;html=1;" vertex="1" parent="1">
          <mxGeometry x="200" y="390" width="10" height="40" as="geometry" />
        </mxCell>
        <mxCell id="99yKhhml4Z9IP-0FQXXE-137" value="" style="rounded=0;whiteSpace=wrap;html=1;" vertex="1" parent="1">
          <mxGeometry x="220" y="390" width="10" height="40" as="geometry" />
        </mxCell>
        <mxCell id="99yKhhml4Z9IP-0FQXXE-138" value="" style="rounded=0;whiteSpace=wrap;html=1;" vertex="1" parent="1">
          <mxGeometry x="230" y="390" width="10" height="40" as="geometry" />
        </mxCell>
        <mxCell id="99yKhhml4Z9IP-0FQXXE-139" value="" style="rounded=0;whiteSpace=wrap;html=1;" vertex="1" parent="1">
          <mxGeometry x="240" y="390" width="10" height="40" as="geometry" />
        </mxCell>
        <mxCell id="99yKhhml4Z9IP-0FQXXE-140" value="" style="rounded=0;whiteSpace=wrap;html=1;" vertex="1" parent="1">
          <mxGeometry x="250" y="390" width="10" height="40" as="geometry" />
        </mxCell>
        <mxCell id="99yKhhml4Z9IP-0FQXXE-141" value="" style="rounded=0;whiteSpace=wrap;html=1;" vertex="1" parent="1">
          <mxGeometry x="260" y="390" width="10" height="40" as="geometry" />
        </mxCell>
        <mxCell id="99yKhhml4Z9IP-0FQXXE-142" value="" style="rounded=0;whiteSpace=wrap;html=1;" vertex="1" parent="1">
          <mxGeometry x="270" y="390" width="10" height="40" as="geometry" />
        </mxCell>
        <mxCell id="99yKhhml4Z9IP-0FQXXE-143" value="" style="rounded=0;whiteSpace=wrap;html=1;" vertex="1" parent="1">
          <mxGeometry x="280" y="390" width="10" height="40" as="geometry" />
        </mxCell>
        <mxCell id="99yKhhml4Z9IP-0FQXXE-144" value="" style="rounded=0;whiteSpace=wrap;html=1;" vertex="1" parent="1">
          <mxGeometry x="290" y="390" width="10" height="40" as="geometry" />
        </mxCell>
        <mxCell id="99yKhhml4Z9IP-0FQXXE-145" value="" style="rounded=0;whiteSpace=wrap;html=1;" vertex="1" parent="1">
          <mxGeometry x="310" y="390" width="10" height="40" as="geometry" />
        </mxCell>
        <mxCell id="99yKhhml4Z9IP-0FQXXE-146" value="" style="rounded=0;whiteSpace=wrap;html=1;" vertex="1" parent="1">
          <mxGeometry x="320" y="390" width="10" height="40" as="geometry" />
        </mxCell>
        <mxCell id="99yKhhml4Z9IP-0FQXXE-147" value="" style="rounded=0;whiteSpace=wrap;html=1;" vertex="1" parent="1">
          <mxGeometry x="330" y="390" width="10" height="40" as="geometry" />
        </mxCell>
        <mxCell id="99yKhhml4Z9IP-0FQXXE-148" value="" style="rounded=0;whiteSpace=wrap;html=1;" vertex="1" parent="1">
          <mxGeometry x="340" y="390" width="10" height="40" as="geometry" />
        </mxCell>
        <mxCell id="99yKhhml4Z9IP-0FQXXE-149" value="" style="rounded=0;whiteSpace=wrap;html=1;" vertex="1" parent="1">
          <mxGeometry x="350" y="390" width="10" height="40" as="geometry" />
        </mxCell>
        <mxCell id="99yKhhml4Z9IP-0FQXXE-150" value="" style="rounded=0;whiteSpace=wrap;html=1;" vertex="1" parent="1">
          <mxGeometry x="360" y="390" width="10" height="40" as="geometry" />
        </mxCell>
        <mxCell id="99yKhhml4Z9IP-0FQXXE-151" value="" style="rounded=0;whiteSpace=wrap;html=1;" vertex="1" parent="1">
          <mxGeometry x="370" y="390" width="10" height="40" as="geometry" />
        </mxCell>
        <mxCell id="99yKhhml4Z9IP-0FQXXE-152" value="" style="rounded=0;whiteSpace=wrap;html=1;" vertex="1" parent="1">
          <mxGeometry x="380" y="390" width="10" height="40" as="geometry" />
        </mxCell>
        <mxCell id="99yKhhml4Z9IP-0FQXXE-154" value="int number1" style="rounded=0;whiteSpace=wrap;html=1;" vertex="1" parent="1">
          <mxGeometry x="30" y="210" width="100" height="20" as="geometry" />
        </mxCell>
        <mxCell id="99yKhhml4Z9IP-0FQXXE-156" style="edgeStyle=orthogonalEdgeStyle;rounded=0;orthogonalLoop=1;jettySize=auto;html=1;exitX=0;exitY=0.5;exitDx=0;exitDy=0;entryX=0;entryY=0;entryDx=0;entryDy=0;" edge="1" parent="1" source="99yKhhml4Z9IP-0FQXXE-155" target="99yKhhml4Z9IP-0FQXXE-53">
          <mxGeometry relative="1" as="geometry" />
        </mxCell>
        <mxCell id="99yKhhml4Z9IP-0FQXXE-155" value="5 = 10^0*5&lt;br&gt;=2^2*+2^0 *1" style="rounded=0;whiteSpace=wrap;html=1;strokeColor=none;" vertex="1" parent="1">
          <mxGeometry x="400" y="200" width="90" height="30" as="geometry" />
        </mxCell>
        <mxCell id="99yKhhml4Z9IP-0FQXXE-158" value="2의 보수 : 모든 비트 반전 후 -&amp;nbsp; 1" style="rounded=0;whiteSpace=wrap;html=1;strokeColor=none;" vertex="1" parent="1">
          <mxGeometry x="440" y="260" width="180" height="20" as="geometry" />
        </mxCell>
        <mxCell id="99yKhhml4Z9IP-0FQXXE-159" value="" style="rounded=0;whiteSpace=wrap;html=1;fillColor=#dae8fc;strokeColor=#6c8ebf;" vertex="1" parent="1">
          <mxGeometry x="440" y="280" width="10" height="40" as="geometry" />
        </mxCell>
        <mxCell id="99yKhhml4Z9IP-0FQXXE-160" value="" style="rounded=0;whiteSpace=wrap;html=1;fillColor=#dae8fc;strokeColor=#6c8ebf;" vertex="1" parent="1">
          <mxGeometry x="450" y="280" width="10" height="40" as="geometry" />
        </mxCell>
        <mxCell id="99yKhhml4Z9IP-0FQXXE-161" value="" style="rounded=0;whiteSpace=wrap;html=1;fillColor=#dae8fc;strokeColor=#6c8ebf;" vertex="1" parent="1">
          <mxGeometry x="460" y="280" width="10" height="40" as="geometry" />
        </mxCell>
        <mxCell id="99yKhhml4Z9IP-0FQXXE-162" value="" style="rounded=0;whiteSpace=wrap;html=1;fillColor=#dae8fc;strokeColor=#6c8ebf;" vertex="1" parent="1">
          <mxGeometry x="470" y="280" width="10" height="40" as="geometry" />
        </mxCell>
        <mxCell id="99yKhhml4Z9IP-0FQXXE-163" value="" style="rounded=0;whiteSpace=wrap;html=1;fillColor=#dae8fc;strokeColor=#6c8ebf;" vertex="1" parent="1">
          <mxGeometry x="480" y="280" width="10" height="40" as="geometry" />
        </mxCell>
        <mxCell id="99yKhhml4Z9IP-0FQXXE-164" value="" style="rounded=0;whiteSpace=wrap;html=1;fillColor=#dae8fc;strokeColor=#6c8ebf;" vertex="1" parent="1">
          <mxGeometry x="490" y="280" width="10" height="40" as="geometry" />
        </mxCell>
        <mxCell id="99yKhhml4Z9IP-0FQXXE-165" value="" style="rounded=0;whiteSpace=wrap;html=1;fillColor=#dae8fc;strokeColor=#6c8ebf;" vertex="1" parent="1">
          <mxGeometry x="500" y="280" width="10" height="40" as="geometry" />
        </mxCell>
        <mxCell id="99yKhhml4Z9IP-0FQXXE-166" value="" style="rounded=0;whiteSpace=wrap;html=1;fillColor=#dae8fc;strokeColor=#6c8ebf;" vertex="1" parent="1">
          <mxGeometry x="510" y="280" width="10" height="40" as="geometry" />
        </mxCell>
        <mxCell id="99yKhhml4Z9IP-0FQXXE-167" value="" style="rounded=0;whiteSpace=wrap;html=1;fillColor=#dae8fc;strokeColor=#6c8ebf;" vertex="1" parent="1">
          <mxGeometry x="530" y="280" width="10" height="40" as="geometry" />
        </mxCell>
        <mxCell id="99yKhhml4Z9IP-0FQXXE-168" value="" style="rounded=0;whiteSpace=wrap;html=1;fillColor=#dae8fc;strokeColor=#6c8ebf;" vertex="1" parent="1">
          <mxGeometry x="540" y="280" width="10" height="40" as="geometry" />
        </mxCell>
        <mxCell id="99yKhhml4Z9IP-0FQXXE-169" value="" style="rounded=0;whiteSpace=wrap;html=1;fillColor=#dae8fc;strokeColor=#6c8ebf;" vertex="1" parent="1">
          <mxGeometry x="550" y="280" width="10" height="40" as="geometry" />
        </mxCell>
        <mxCell id="99yKhhml4Z9IP-0FQXXE-170" value="" style="rounded=0;whiteSpace=wrap;html=1;fillColor=#dae8fc;strokeColor=#6c8ebf;" vertex="1" parent="1">
          <mxGeometry x="560" y="280" width="10" height="40" as="geometry" />
        </mxCell>
        <mxCell id="99yKhhml4Z9IP-0FQXXE-171" value="" style="rounded=0;whiteSpace=wrap;html=1;fillColor=#dae8fc;strokeColor=#6c8ebf;" vertex="1" parent="1">
          <mxGeometry x="570" y="280" width="10" height="40" as="geometry" />
        </mxCell>
        <mxCell id="99yKhhml4Z9IP-0FQXXE-172" value="" style="rounded=0;whiteSpace=wrap;html=1;fillColor=#dae8fc;strokeColor=#6c8ebf;" vertex="1" parent="1">
          <mxGeometry x="580" y="280" width="10" height="40" as="geometry" />
        </mxCell>
        <mxCell id="99yKhhml4Z9IP-0FQXXE-173" value="" style="rounded=0;whiteSpace=wrap;html=1;fillColor=#dae8fc;strokeColor=#6c8ebf;" vertex="1" parent="1">
          <mxGeometry x="590" y="280" width="10" height="40" as="geometry" />
        </mxCell>
        <mxCell id="99yKhhml4Z9IP-0FQXXE-174" value="" style="rounded=0;whiteSpace=wrap;html=1;fillColor=#dae8fc;strokeColor=#6c8ebf;" vertex="1" parent="1">
          <mxGeometry x="600" y="280" width="10" height="40" as="geometry" />
        </mxCell>
        <mxCell id="99yKhhml4Z9IP-0FQXXE-175" value="" style="rounded=0;whiteSpace=wrap;html=1;fillColor=#dae8fc;strokeColor=#6c8ebf;" vertex="1" parent="1">
          <mxGeometry x="620" y="280" width="10" height="40" as="geometry" />
        </mxCell>
        <mxCell id="99yKhhml4Z9IP-0FQXXE-176" value="" style="rounded=0;whiteSpace=wrap;html=1;fillColor=#dae8fc;strokeColor=#6c8ebf;" vertex="1" parent="1">
          <mxGeometry x="630" y="280" width="10" height="40" as="geometry" />
        </mxCell>
        <mxCell id="99yKhhml4Z9IP-0FQXXE-177" value="" style="rounded=0;whiteSpace=wrap;html=1;fillColor=#dae8fc;strokeColor=#6c8ebf;" vertex="1" parent="1">
          <mxGeometry x="640" y="280" width="10" height="40" as="geometry" />
        </mxCell>
        <mxCell id="99yKhhml4Z9IP-0FQXXE-178" value="" style="rounded=0;whiteSpace=wrap;html=1;fillColor=#dae8fc;strokeColor=#6c8ebf;" vertex="1" parent="1">
          <mxGeometry x="650" y="280" width="10" height="40" as="geometry" />
        </mxCell>
        <mxCell id="99yKhhml4Z9IP-0FQXXE-179" value="" style="rounded=0;whiteSpace=wrap;html=1;fillColor=#dae8fc;strokeColor=#6c8ebf;" vertex="1" parent="1">
          <mxGeometry x="660" y="280" width="10" height="40" as="geometry" />
        </mxCell>
        <mxCell id="99yKhhml4Z9IP-0FQXXE-180" value="" style="rounded=0;whiteSpace=wrap;html=1;fillColor=#dae8fc;strokeColor=#6c8ebf;" vertex="1" parent="1">
          <mxGeometry x="670" y="280" width="10" height="40" as="geometry" />
        </mxCell>
        <mxCell id="99yKhhml4Z9IP-0FQXXE-181" value="" style="rounded=0;whiteSpace=wrap;html=1;fillColor=#dae8fc;strokeColor=#6c8ebf;" vertex="1" parent="1">
          <mxGeometry x="680" y="280" width="10" height="40" as="geometry" />
        </mxCell>
        <mxCell id="99yKhhml4Z9IP-0FQXXE-182" value="" style="rounded=0;whiteSpace=wrap;html=1;fillColor=#dae8fc;strokeColor=#6c8ebf;" vertex="1" parent="1">
          <mxGeometry x="690" y="280" width="10" height="40" as="geometry" />
        </mxCell>
        <mxCell id="99yKhhml4Z9IP-0FQXXE-183" value="" style="rounded=0;whiteSpace=wrap;html=1;fillColor=#dae8fc;strokeColor=#6c8ebf;" vertex="1" parent="1">
          <mxGeometry x="710" y="280" width="10" height="40" as="geometry" />
        </mxCell>
        <mxCell id="99yKhhml4Z9IP-0FQXXE-184" value="" style="rounded=0;whiteSpace=wrap;html=1;fillColor=#dae8fc;strokeColor=#6c8ebf;" vertex="1" parent="1">
          <mxGeometry x="720" y="280" width="10" height="40" as="geometry" />
        </mxCell>
        <mxCell id="99yKhhml4Z9IP-0FQXXE-185" value="" style="rounded=0;whiteSpace=wrap;html=1;fillColor=#dae8fc;strokeColor=#6c8ebf;" vertex="1" parent="1">
          <mxGeometry x="730" y="280" width="10" height="40" as="geometry" />
        </mxCell>
        <mxCell id="99yKhhml4Z9IP-0FQXXE-186" value="" style="rounded=0;whiteSpace=wrap;html=1;fillColor=#dae8fc;strokeColor=#6c8ebf;" vertex="1" parent="1">
          <mxGeometry x="740" y="280" width="10" height="40" as="geometry" />
        </mxCell>
        <mxCell id="99yKhhml4Z9IP-0FQXXE-187" value="" style="rounded=0;whiteSpace=wrap;html=1;fillColor=#dae8fc;strokeColor=#6c8ebf;" vertex="1" parent="1">
          <mxGeometry x="750" y="280" width="10" height="40" as="geometry" />
        </mxCell>
        <mxCell id="99yKhhml4Z9IP-0FQXXE-188" value="" style="rounded=0;whiteSpace=wrap;html=1;" vertex="1" parent="1">
          <mxGeometry x="760" y="280" width="10" height="40" as="geometry" />
        </mxCell>
        <mxCell id="99yKhhml4Z9IP-0FQXXE-189" value="" style="rounded=0;whiteSpace=wrap;html=1;fillColor=#dae8fc;strokeColor=#6c8ebf;" vertex="1" parent="1">
          <mxGeometry x="770" y="280" width="10" height="40" as="geometry" />
        </mxCell>
        <mxCell id="99yKhhml4Z9IP-0FQXXE-190" value="" style="rounded=0;whiteSpace=wrap;html=1;fillColor=#dae8fc;strokeColor=#6c8ebf;" vertex="1" parent="1">
          <mxGeometry x="780" y="280" width="10" height="40" as="geometry" />
        </mxCell>
        <mxCell id="99yKhhml4Z9IP-0FQXXE-191" value="" style="rounded=0;whiteSpace=wrap;html=1;" vertex="1" parent="1">
          <mxGeometry x="40" y="640" width="170" height="240" as="geometry" />
        </mxCell>
        <mxCell id="99yKhhml4Z9IP-0FQXXE-192" value="cpu" style="rounded=0;whiteSpace=wrap;html=1;" vertex="1" parent="1">
          <mxGeometry x="390" y="660" width="130" height="130" as="geometry" />
        </mxCell>
        <mxCell id="99yKhhml4Z9IP-0FQXXE-205" style="edgeStyle=orthogonalEdgeStyle;rounded=0;orthogonalLoop=1;jettySize=auto;html=1;exitX=0;exitY=0.5;exitDx=0;exitDy=0;entryX=1;entryY=0.5;entryDx=0;entryDy=0;" edge="1" parent="1" source="99yKhhml4Z9IP-0FQXXE-194" target="99yKhhml4Z9IP-0FQXXE-197">
          <mxGeometry relative="1" as="geometry" />
        </mxCell>
        <mxCell id="99yKhhml4Z9IP-0FQXXE-194" value="register" style="rounded=0;whiteSpace=wrap;html=1;" vertex="1" parent="1">
          <mxGeometry x="350" y="670" width="63" height="30" as="geometry" />
        </mxCell>
        <mxCell id="99yKhhml4Z9IP-0FQXXE-204" style="edgeStyle=orthogonalEdgeStyle;rounded=0;orthogonalLoop=1;jettySize=auto;html=1;exitX=0;exitY=0.5;exitDx=0;exitDy=0;entryX=1;entryY=0.5;entryDx=0;entryDy=0;" edge="1" parent="1" source="99yKhhml4Z9IP-0FQXXE-195" target="99yKhhml4Z9IP-0FQXXE-198">
          <mxGeometry relative="1" as="geometry" />
        </mxCell>
        <mxCell id="99yKhhml4Z9IP-0FQXXE-195" value="register" style="rounded=0;whiteSpace=wrap;html=1;" vertex="1" parent="1">
          <mxGeometry x="350" y="710" width="63" height="30" as="geometry" />
        </mxCell>
        <mxCell id="99yKhhml4Z9IP-0FQXXE-202" style="edgeStyle=orthogonalEdgeStyle;rounded=0;orthogonalLoop=1;jettySize=auto;html=1;exitX=0;exitY=0.5;exitDx=0;exitDy=0;entryX=1;entryY=0.5;entryDx=0;entryDy=0;" edge="1" parent="1" source="99yKhhml4Z9IP-0FQXXE-196" target="99yKhhml4Z9IP-0FQXXE-199">
          <mxGeometry relative="1" as="geometry" />
        </mxCell>
        <mxCell id="99yKhhml4Z9IP-0FQXXE-196" value="register" style="rounded=0;whiteSpace=wrap;html=1;" vertex="1" parent="1">
          <mxGeometry x="350" y="750" width="63" height="30" as="geometry" />
        </mxCell>
        <mxCell id="99yKhhml4Z9IP-0FQXXE-197" value="number1" style="rounded=0;whiteSpace=wrap;html=1;" vertex="1" parent="1">
          <mxGeometry x="50" y="660" width="63" height="20" as="geometry" />
        </mxCell>
        <mxCell id="99yKhhml4Z9IP-0FQXXE-198" value="number2" style="rounded=0;whiteSpace=wrap;html=1;" vertex="1" parent="1">
          <mxGeometry x="50" y="690" width="63" height="20" as="geometry" />
        </mxCell>
        <mxCell id="99yKhhml4Z9IP-0FQXXE-199" value="long1" style="rounded=0;whiteSpace=wrap;html=1;" vertex="1" parent="1">
          <mxGeometry x="50" y="745" width="63" height="20" as="geometry" />
        </mxCell>
        <mxCell id="99yKhhml4Z9IP-0FQXXE-206" value="덧샘&lt;br&gt;회로" style="rounded=0;whiteSpace=wrap;html=1;" vertex="1" parent="1">
          <mxGeometry x="417" y="690" width="30" height="30" as="geometry" />
        </mxCell>
        <mxCell id="99yKhhml4Z9IP-0FQXXE-240" value="" style="rounded=0;whiteSpace=wrap;html=1;" vertex="1" parent="1">
          <mxGeometry x="40" y="520" width="10" height="40" as="geometry" />
        </mxCell>
        <mxCell id="99yKhhml4Z9IP-0FQXXE-241" value="" style="rounded=0;whiteSpace=wrap;html=1;" vertex="1" parent="1">
          <mxGeometry x="50" y="520" width="10" height="40" as="geometry" />
        </mxCell>
        <mxCell id="99yKhhml4Z9IP-0FQXXE-242" value="" style="rounded=0;whiteSpace=wrap;html=1;" vertex="1" parent="1">
          <mxGeometry x="60" y="520" width="10" height="40" as="geometry" />
        </mxCell>
        <mxCell id="99yKhhml4Z9IP-0FQXXE-243" value="" style="rounded=0;whiteSpace=wrap;html=1;" vertex="1" parent="1">
          <mxGeometry x="70" y="520" width="10" height="40" as="geometry" />
        </mxCell>
        <mxCell id="99yKhhml4Z9IP-0FQXXE-244" value="" style="rounded=0;whiteSpace=wrap;html=1;" vertex="1" parent="1">
          <mxGeometry x="80" y="520" width="10" height="40" as="geometry" />
        </mxCell>
        <mxCell id="99yKhhml4Z9IP-0FQXXE-245" value="" style="rounded=0;whiteSpace=wrap;html=1;" vertex="1" parent="1">
          <mxGeometry x="90" y="520" width="10" height="40" as="geometry" />
        </mxCell>
        <mxCell id="99yKhhml4Z9IP-0FQXXE-246" value="" style="rounded=0;whiteSpace=wrap;html=1;" vertex="1" parent="1">
          <mxGeometry x="100" y="520" width="10" height="40" as="geometry" />
        </mxCell>
        <mxCell id="99yKhhml4Z9IP-0FQXXE-247" value="" style="rounded=0;whiteSpace=wrap;html=1;" vertex="1" parent="1">
          <mxGeometry x="110" y="520" width="10" height="40" as="geometry" />
        </mxCell>
        <mxCell id="99yKhhml4Z9IP-0FQXXE-248" value="" style="rounded=0;whiteSpace=wrap;html=1;" vertex="1" parent="1">
          <mxGeometry x="130" y="520" width="10" height="40" as="geometry" />
        </mxCell>
        <mxCell id="99yKhhml4Z9IP-0FQXXE-249" value="" style="rounded=0;whiteSpace=wrap;html=1;" vertex="1" parent="1">
          <mxGeometry x="140" y="520" width="10" height="40" as="geometry" />
        </mxCell>
        <mxCell id="99yKhhml4Z9IP-0FQXXE-250" value="" style="rounded=0;whiteSpace=wrap;html=1;" vertex="1" parent="1">
          <mxGeometry x="150" y="520" width="10" height="40" as="geometry" />
        </mxCell>
        <mxCell id="99yKhhml4Z9IP-0FQXXE-251" value="" style="rounded=0;whiteSpace=wrap;html=1;" vertex="1" parent="1">
          <mxGeometry x="160" y="520" width="10" height="40" as="geometry" />
        </mxCell>
        <mxCell id="99yKhhml4Z9IP-0FQXXE-252" value="" style="rounded=0;whiteSpace=wrap;html=1;" vertex="1" parent="1">
          <mxGeometry x="170" y="520" width="10" height="40" as="geometry" />
        </mxCell>
        <mxCell id="99yKhhml4Z9IP-0FQXXE-253" value="" style="rounded=0;whiteSpace=wrap;html=1;" vertex="1" parent="1">
          <mxGeometry x="180" y="520" width="10" height="40" as="geometry" />
        </mxCell>
        <mxCell id="99yKhhml4Z9IP-0FQXXE-254" value="" style="rounded=0;whiteSpace=wrap;html=1;" vertex="1" parent="1">
          <mxGeometry x="190" y="520" width="10" height="40" as="geometry" />
        </mxCell>
        <mxCell id="99yKhhml4Z9IP-0FQXXE-255" value="" style="rounded=0;whiteSpace=wrap;html=1;" vertex="1" parent="1">
          <mxGeometry x="200" y="520" width="10" height="40" as="geometry" />
        </mxCell>
        <mxCell id="99yKhhml4Z9IP-0FQXXE-256" value="" style="rounded=0;whiteSpace=wrap;html=1;" vertex="1" parent="1">
          <mxGeometry x="220" y="520" width="10" height="40" as="geometry" />
        </mxCell>
        <mxCell id="99yKhhml4Z9IP-0FQXXE-257" value="" style="rounded=0;whiteSpace=wrap;html=1;" vertex="1" parent="1">
          <mxGeometry x="230" y="520" width="10" height="40" as="geometry" />
        </mxCell>
        <mxCell id="99yKhhml4Z9IP-0FQXXE-258" value="" style="rounded=0;whiteSpace=wrap;html=1;" vertex="1" parent="1">
          <mxGeometry x="240" y="520" width="10" height="40" as="geometry" />
        </mxCell>
        <mxCell id="99yKhhml4Z9IP-0FQXXE-259" value="" style="rounded=0;whiteSpace=wrap;html=1;" vertex="1" parent="1">
          <mxGeometry x="250" y="520" width="10" height="40" as="geometry" />
        </mxCell>
        <mxCell id="99yKhhml4Z9IP-0FQXXE-260" value="" style="rounded=0;whiteSpace=wrap;html=1;" vertex="1" parent="1">
          <mxGeometry x="260" y="520" width="10" height="40" as="geometry" />
        </mxCell>
        <mxCell id="99yKhhml4Z9IP-0FQXXE-261" value="" style="rounded=0;whiteSpace=wrap;html=1;" vertex="1" parent="1">
          <mxGeometry x="270" y="520" width="10" height="40" as="geometry" />
        </mxCell>
        <mxCell id="99yKhhml4Z9IP-0FQXXE-262" value="" style="rounded=0;whiteSpace=wrap;html=1;" vertex="1" parent="1">
          <mxGeometry x="280" y="520" width="10" height="40" as="geometry" />
        </mxCell>
        <mxCell id="99yKhhml4Z9IP-0FQXXE-263" value="" style="rounded=0;whiteSpace=wrap;html=1;" vertex="1" parent="1">
          <mxGeometry x="290" y="520" width="10" height="40" as="geometry" />
        </mxCell>
        <mxCell id="99yKhhml4Z9IP-0FQXXE-264" value="" style="rounded=0;whiteSpace=wrap;html=1;" vertex="1" parent="1">
          <mxGeometry x="310" y="520" width="10" height="40" as="geometry" />
        </mxCell>
        <mxCell id="99yKhhml4Z9IP-0FQXXE-265" value="" style="rounded=0;whiteSpace=wrap;html=1;" vertex="1" parent="1">
          <mxGeometry x="320" y="520" width="10" height="40" as="geometry" />
        </mxCell>
        <mxCell id="99yKhhml4Z9IP-0FQXXE-266" value="" style="rounded=0;whiteSpace=wrap;html=1;" vertex="1" parent="1">
          <mxGeometry x="330" y="520" width="10" height="40" as="geometry" />
        </mxCell>
        <mxCell id="99yKhhml4Z9IP-0FQXXE-267" value="" style="rounded=0;whiteSpace=wrap;html=1;" vertex="1" parent="1">
          <mxGeometry x="340" y="520" width="10" height="40" as="geometry" />
        </mxCell>
        <mxCell id="99yKhhml4Z9IP-0FQXXE-268" value="" style="rounded=0;whiteSpace=wrap;html=1;" vertex="1" parent="1">
          <mxGeometry x="350" y="520" width="10" height="40" as="geometry" />
        </mxCell>
        <mxCell id="99yKhhml4Z9IP-0FQXXE-269" value="" style="rounded=0;whiteSpace=wrap;html=1;" vertex="1" parent="1">
          <mxGeometry x="360" y="520" width="10" height="40" as="geometry" />
        </mxCell>
        <mxCell id="99yKhhml4Z9IP-0FQXXE-270" value="" style="rounded=0;whiteSpace=wrap;html=1;" vertex="1" parent="1">
          <mxGeometry x="370" y="520" width="10" height="40" as="geometry" />
        </mxCell>
        <mxCell id="99yKhhml4Z9IP-0FQXXE-271" value="" style="rounded=0;whiteSpace=wrap;html=1;" vertex="1" parent="1">
          <mxGeometry x="380" y="520" width="10" height="40" as="geometry" />
        </mxCell>
        <mxCell id="99yKhhml4Z9IP-0FQXXE-272" value="" style="rounded=0;whiteSpace=wrap;html=1;" vertex="1" parent="1">
          <mxGeometry x="400" y="520" width="10" height="40" as="geometry" />
        </mxCell>
        <mxCell id="99yKhhml4Z9IP-0FQXXE-273" value="" style="rounded=0;whiteSpace=wrap;html=1;" vertex="1" parent="1">
          <mxGeometry x="410" y="520" width="10" height="40" as="geometry" />
        </mxCell>
        <mxCell id="99yKhhml4Z9IP-0FQXXE-274" value="" style="rounded=0;whiteSpace=wrap;html=1;" vertex="1" parent="1">
          <mxGeometry x="420" y="520" width="10" height="40" as="geometry" />
        </mxCell>
        <mxCell id="99yKhhml4Z9IP-0FQXXE-275" value="" style="rounded=0;whiteSpace=wrap;html=1;" vertex="1" parent="1">
          <mxGeometry x="430" y="520" width="10" height="40" as="geometry" />
        </mxCell>
        <mxCell id="99yKhhml4Z9IP-0FQXXE-276" value="" style="rounded=0;whiteSpace=wrap;html=1;" vertex="1" parent="1">
          <mxGeometry x="440" y="520" width="10" height="40" as="geometry" />
        </mxCell>
        <mxCell id="99yKhhml4Z9IP-0FQXXE-277" value="" style="rounded=0;whiteSpace=wrap;html=1;" vertex="1" parent="1">
          <mxGeometry x="450" y="520" width="10" height="40" as="geometry" />
        </mxCell>
        <mxCell id="99yKhhml4Z9IP-0FQXXE-278" value="" style="rounded=0;whiteSpace=wrap;html=1;" vertex="1" parent="1">
          <mxGeometry x="460" y="520" width="10" height="40" as="geometry" />
        </mxCell>
        <mxCell id="99yKhhml4Z9IP-0FQXXE-279" value="" style="rounded=0;whiteSpace=wrap;html=1;" vertex="1" parent="1">
          <mxGeometry x="470" y="520" width="10" height="40" as="geometry" />
        </mxCell>
        <mxCell id="99yKhhml4Z9IP-0FQXXE-280" value="" style="rounded=0;whiteSpace=wrap;html=1;" vertex="1" parent="1">
          <mxGeometry x="490" y="520" width="10" height="40" as="geometry" />
        </mxCell>
        <mxCell id="99yKhhml4Z9IP-0FQXXE-281" value="" style="rounded=0;whiteSpace=wrap;html=1;" vertex="1" parent="1">
          <mxGeometry x="500" y="520" width="10" height="40" as="geometry" />
        </mxCell>
        <mxCell id="99yKhhml4Z9IP-0FQXXE-282" value="" style="rounded=0;whiteSpace=wrap;html=1;" vertex="1" parent="1">
          <mxGeometry x="510" y="520" width="10" height="40" as="geometry" />
        </mxCell>
        <mxCell id="99yKhhml4Z9IP-0FQXXE-283" value="" style="rounded=0;whiteSpace=wrap;html=1;" vertex="1" parent="1">
          <mxGeometry x="520" y="520" width="10" height="40" as="geometry" />
        </mxCell>
        <mxCell id="99yKhhml4Z9IP-0FQXXE-284" value="" style="rounded=0;whiteSpace=wrap;html=1;" vertex="1" parent="1">
          <mxGeometry x="530" y="520" width="10" height="40" as="geometry" />
        </mxCell>
        <mxCell id="99yKhhml4Z9IP-0FQXXE-285" value="" style="rounded=0;whiteSpace=wrap;html=1;" vertex="1" parent="1">
          <mxGeometry x="540" y="520" width="10" height="40" as="geometry" />
        </mxCell>
        <mxCell id="99yKhhml4Z9IP-0FQXXE-286" value="" style="rounded=0;whiteSpace=wrap;html=1;" vertex="1" parent="1">
          <mxGeometry x="550" y="520" width="10" height="40" as="geometry" />
        </mxCell>
        <mxCell id="99yKhhml4Z9IP-0FQXXE-287" value="" style="rounded=0;whiteSpace=wrap;html=1;" vertex="1" parent="1">
          <mxGeometry x="560" y="520" width="10" height="40" as="geometry" />
        </mxCell>
        <mxCell id="99yKhhml4Z9IP-0FQXXE-288" value="" style="rounded=0;whiteSpace=wrap;html=1;" vertex="1" parent="1">
          <mxGeometry x="580" y="520" width="10" height="40" as="geometry" />
        </mxCell>
        <mxCell id="99yKhhml4Z9IP-0FQXXE-289" value="" style="rounded=0;whiteSpace=wrap;html=1;" vertex="1" parent="1">
          <mxGeometry x="590" y="520" width="10" height="40" as="geometry" />
        </mxCell>
        <mxCell id="99yKhhml4Z9IP-0FQXXE-290" value="" style="rounded=0;whiteSpace=wrap;html=1;" vertex="1" parent="1">
          <mxGeometry x="600" y="520" width="10" height="40" as="geometry" />
        </mxCell>
        <mxCell id="99yKhhml4Z9IP-0FQXXE-291" value="" style="rounded=0;whiteSpace=wrap;html=1;" vertex="1" parent="1">
          <mxGeometry x="610" y="520" width="10" height="40" as="geometry" />
        </mxCell>
        <mxCell id="99yKhhml4Z9IP-0FQXXE-292" value="" style="rounded=0;whiteSpace=wrap;html=1;" vertex="1" parent="1">
          <mxGeometry x="620" y="520" width="10" height="40" as="geometry" />
        </mxCell>
        <mxCell id="99yKhhml4Z9IP-0FQXXE-293" value="" style="rounded=0;whiteSpace=wrap;html=1;" vertex="1" parent="1">
          <mxGeometry x="630" y="520" width="10" height="40" as="geometry" />
        </mxCell>
        <mxCell id="99yKhhml4Z9IP-0FQXXE-294" value="" style="rounded=0;whiteSpace=wrap;html=1;" vertex="1" parent="1">
          <mxGeometry x="640" y="520" width="10" height="40" as="geometry" />
        </mxCell>
        <mxCell id="99yKhhml4Z9IP-0FQXXE-295" value="" style="rounded=0;whiteSpace=wrap;html=1;" vertex="1" parent="1">
          <mxGeometry x="650" y="520" width="10" height="40" as="geometry" />
        </mxCell>
        <mxCell id="99yKhhml4Z9IP-0FQXXE-296" value="" style="rounded=0;whiteSpace=wrap;html=1;" vertex="1" parent="1">
          <mxGeometry x="670" y="520" width="10" height="40" as="geometry" />
        </mxCell>
        <mxCell id="99yKhhml4Z9IP-0FQXXE-297" value="" style="rounded=0;whiteSpace=wrap;html=1;" vertex="1" parent="1">
          <mxGeometry x="680" y="520" width="10" height="40" as="geometry" />
        </mxCell>
        <mxCell id="99yKhhml4Z9IP-0FQXXE-298" value="" style="rounded=0;whiteSpace=wrap;html=1;" vertex="1" parent="1">
          <mxGeometry x="690" y="520" width="10" height="40" as="geometry" />
        </mxCell>
        <mxCell id="99yKhhml4Z9IP-0FQXXE-299" value="" style="rounded=0;whiteSpace=wrap;html=1;" vertex="1" parent="1">
          <mxGeometry x="700" y="520" width="10" height="40" as="geometry" />
        </mxCell>
        <mxCell id="99yKhhml4Z9IP-0FQXXE-300" value="" style="rounded=0;whiteSpace=wrap;html=1;" vertex="1" parent="1">
          <mxGeometry x="710" y="520" width="10" height="40" as="geometry" />
        </mxCell>
        <mxCell id="99yKhhml4Z9IP-0FQXXE-301" value="" style="rounded=0;whiteSpace=wrap;html=1;" vertex="1" parent="1">
          <mxGeometry x="720" y="520" width="10" height="40" as="geometry" />
        </mxCell>
        <mxCell id="99yKhhml4Z9IP-0FQXXE-302" value="" style="rounded=0;whiteSpace=wrap;html=1;" vertex="1" parent="1">
          <mxGeometry x="730" y="520" width="10" height="40" as="geometry" />
        </mxCell>
        <mxCell id="99yKhhml4Z9IP-0FQXXE-303" value="" style="rounded=0;whiteSpace=wrap;html=1;" vertex="1" parent="1">
          <mxGeometry x="740" y="520" width="10" height="40" as="geometry" />
        </mxCell>
        <mxCell id="99yKhhml4Z9IP-0FQXXE-306" value="long1" style="rounded=0;whiteSpace=wrap;html=1;" vertex="1" parent="1">
          <mxGeometry x="30" y="490" width="100" height="20" as="geometry" />
        </mxCell>
        <mxCell id="99yKhhml4Z9IP-0FQXXE-307" value="Methods" style="rounded=1;whiteSpace=wrap;html=1;fillColor=#0050ef;fontColor=#ffffff;strokeColor=#001DBC;" vertex="1" parent="1">
          <mxGeometry x="850" y="10" width="120" height="60" as="geometry" />
        </mxCell>
        <mxCell id="99yKhhml4Z9IP-0FQXXE-308" value="f(x) = ax + b&lt;br&gt;x(2) = 2a + b" style="rounded=0;whiteSpace=wrap;html=1;align=left;strokeColor=none;" vertex="1" parent="1">
          <mxGeometry x="860" y="100" width="120" height="80" as="geometry" />
        </mxCell>
        <mxCell id="99yKhhml4Z9IP-0FQXXE-309" value="" style="rounded=0;whiteSpace=wrap;html=1;" vertex="1" parent="1">
          <mxGeometry x="1040" y="40" width="160" height="40" as="geometry" />
        </mxCell>
        <mxCell id="99yKhhml4Z9IP-0FQXXE-310" value="" style="rounded=0;whiteSpace=wrap;html=1;" vertex="1" parent="1">
          <mxGeometry x="1040" y="90" width="160" height="40" as="geometry" />
        </mxCell>
        <mxCell id="99yKhhml4Z9IP-0FQXXE-311" value="" style="rounded=0;whiteSpace=wrap;html=1;" vertex="1" parent="1">
          <mxGeometry x="1040" y="140" width="160" height="40" as="geometry" />
        </mxCell>
        <mxCell id="99yKhhml4Z9IP-0FQXXE-312" value="" style="rounded=0;whiteSpace=wrap;html=1;" vertex="1" parent="1">
          <mxGeometry x="1040" y="190" width="160" height="370" as="geometry" />
        </mxCell>
        <mxCell id="99yKhhml4Z9IP-0FQXXE-313" value="code" style="text;html=1;strokeColor=none;fillColor=none;align=center;verticalAlign=middle;whiteSpace=wrap;rounded=0;" vertex="1" parent="1">
          <mxGeometry x="980" y="50" width="60" height="30" as="geometry" />
        </mxCell>
        <mxCell id="99yKhhml4Z9IP-0FQXXE-314" value="BSS" style="text;html=1;strokeColor=none;fillColor=none;align=center;verticalAlign=middle;whiteSpace=wrap;rounded=0;" vertex="1" parent="1">
          <mxGeometry x="980" y="100" width="60" height="30" as="geometry" />
        </mxCell>
        <mxCell id="99yKhhml4Z9IP-0FQXXE-315" value="Data" style="text;html=1;strokeColor=none;fillColor=none;align=center;verticalAlign=middle;whiteSpace=wrap;rounded=0;" vertex="1" parent="1">
          <mxGeometry x="980" y="150" width="60" height="30" as="geometry" />
        </mxCell>
        <mxCell id="99yKhhml4Z9IP-0FQXXE-316" value="Stack" style="text;html=1;strokeColor=none;fillColor=none;align=center;verticalAlign=middle;whiteSpace=wrap;rounded=0;" vertex="1" parent="1">
          <mxGeometry x="980" y="530" width="60" height="30" as="geometry" />
        </mxCell>
        <mxCell id="99yKhhml4Z9IP-0FQXXE-317" value="Heap" style="text;html=1;strokeColor=none;fillColor=none;align=center;verticalAlign=middle;whiteSpace=wrap;rounded=0;" vertex="1" parent="1">
          <mxGeometry x="980" y="190" width="60" height="30" as="geometry" />
        </mxCell>
      </root>
    </mxGraphModel>
  </diagram>
</mxfile>
